<?xml version="1.0" encoding="UTF-8"?>
<svg width="320px" height="100px" viewBox="0 -20 320 120" version="1.1" xmlns="http://www.w3.org/2000/svg" xmlns:xlink="http://www.w3.org/1999/xlink">
    <!-- Generator: Sketch 42 (36781) - http://www.bohemiancoding.com/sketch -->
    <title>small logo</title>
    <desc>Created with Sketch.</desc>
    <defs>
        <path d="M11.3484774,0.0646764565 C11.3484774,0.0646764565 7.25714159,3.62660102 4.8988106,5.98493201 C2.54047962,8.343263 0.0537173834,11.2332928 0.0537173834,11.2332928 C0.0537173834,11.2332928 3.65469419,13.060742 7.56138966,16.9674374 C11.4680851,20.8741329 17.3711838,25.5501086 17.3711838,25.5501086 C17.3711838,25.5501086 20.0487955,28.0734721 20.8491215,28.8737981 C21.6494475,29.6741241 28.1301601,33.1424213 33.7741087,38.78637 C39.4180573,44.4303186 108.237107,112.118323 109.851811,113.733027 C111.466515,115.347732 113.542493,119.712597 115.069289,119.568479 C116.596085,119.424362 120.447552,115.865378 120.491343,113.964727 C120.535134,112.064075 118.635789,112.966362 114.795924,109.126496 C110.956058,105.286631 42.5977927,36.6865355 39.4167501,33.5054929 C36.2357075,30.3244503 30.6662686,22.2033799 29.3092438,20.8463551 C27.9522191,19.4893303 19.3535348,10.3759407 17.0917723,7.51548604 C14.8300099,4.65503137 11.3484774,0.0646764565 11.3484774,0.0646764565 Z" id="path-1"></path>
        <mask id="mask-3" maskContentUnits="userSpaceOnUse" maskUnits="objectBoundingBox" x="-1" y="-1" width="122.438365" height="121.507288">
            <rect x="-0.946282617" y="-0.935323544" width="122.438365" height="121.507288" fill="white"></rect>
            <use xlink:href="#path-1" fill="black"></use>
        </mask>
        <path d="M46.1817766,35.1104552 C46.490273,35.4189516 35.7281922,46.5091366 35.2710031,46.4529275 C34.813814,46.3967184 31.2729679,42.8310357 30.4618576,43.265349 C29.6507473,43.6996623 20.2798162,49.6388467 13.7870376,59.6130452 C7.29425897,69.5872436 1.39129826,79.2839406 1.31090619,79.9813256 C1.23051411,80.6787105 -0.221608628,80.8644946 0.189502074,79.8017506 C0.600612776,78.7390065 7.74586711,60.5444168 14.3450436,51.5821708 C20.94422,42.6199248 26.1192149,37.5135573 26.926567,36.7062052 C27.7339191,35.8988531 35.8852182,27.5841554 36.4489431,27.0204305 C37.0126681,26.4567056 47.9801408,16.0006702 60.4077428,9.2554155 C72.8353449,2.51016077 82.2085382,0.160163109 83.0474262,0.167352644 C83.8863143,0.174542179 83.696772,0.847744124 82.4868059,1.6397368 C81.2768397,2.43172948 66.7864947,9.70802943 57.7015364,16.069461 C48.6165781,22.4308926 43.1517143,29.6709181 43.3061259,30.2544142 C43.4605375,30.8379104 45.1692292,34.0979077 46.1817766,35.1104552 Z" id="path-4"></path>
        <mask id="mask-6" maskContentUnits="userSpaceOnUse" maskUnits="objectBoundingBox" x="-1" y="-1" width="85.4448324" height="82.3842523">
            <rect x="-0.883652512" y="-0.832663795" width="85.4448324" height="82.3842523" fill="white"></rect>
            <use xlink:href="#path-4" fill="black"></use>
        </mask>
        <path d="M119.092317,11.3577518 C119.092317,11.3577518 115.54319,7.28111544 113.193332,4.93125749 C110.843474,2.58139955 107.963827,0.103571793 107.963827,0.103571793 C107.963827,0.103571793 106.142944,3.69161096 102.250284,7.58427039 C98.357625,11.4769298 93.6984491,17.3588198 93.6984491,17.3588198 C93.6984491,17.3588198 91.1841516,20.0268113 90.386701,20.8242619 C89.5892504,21.6217125 86.1334142,28.079141 80.5097432,33.702812 C74.8860722,39.326483 7.44125808,107.898278 5.83235514,109.507181 C4.2234522,111.116084 -0.125730595,113.184604 0.0178691211,114.705914 C0.161468837,116.227224 3.70766546,120.064854 5.60148848,120.108487 C7.49531149,120.152121 6.59626656,118.2596 10.4223361,114.433531 C14.2484056,110.607461 82.6020334,42.4947942 85.7716471,39.3251805 C88.9412608,36.1555668 97.0331536,30.6061378 98.3853029,29.2539886 C99.7374522,27.9018393 108.818099,19.3340485 111.668277,17.0804122 C114.518454,14.8267758 119.092317,11.3577518 119.092317,11.3577518 Z" id="path-7"></path>
        <mask id="mask-9" maskContentUnits="userSpaceOnUse" maskUnits="objectBoundingBox" x="-1" y="-1" width="121.07792" height="122.005653">
            <rect x="-0.98560332" y="-0.896428207" width="121.07792" height="122.005653" fill="white"></rect>
            <use xlink:href="#path-7" fill="black"></use>
        </mask>
        <path d="M45.4096112,46.0508496 C45.1022232,46.3582377 34.0518831,35.634823 34.1078902,35.1792765 C34.1638974,34.72373 37.7167693,31.1956055 37.2840164,30.3874094 C36.8512635,29.5792132 30.9334175,20.2419501 20.9950545,13.7724989 C11.0566914,7.30304762 1.39483286,1.42129516 0.699953504,1.34119191 C0.00507415125,1.26108867 -0.18004249,-0.185816862 0.878883309,0.223816796 C1.93780911,0.633450454 20.0670291,7.75303321 28.9970754,14.3285 C37.9271217,20.9039669 43.0151429,26.0603689 43.8195944,26.8648204 C44.6240459,27.6692719 52.9088703,35.7912849 53.4705699,36.3529844 C54.0322695,36.914684 64.4507382,47.8427527 71.1717585,60.2257046 C77.8927788,72.6086566 80.2343333,81.9481737 80.2271696,82.7840478 C80.2200059,83.6199219 79.5492227,83.4310606 78.7600755,82.2254416 C77.9709283,81.0198227 70.7207707,66.5815388 64.3821946,57.529221 C58.0436184,48.4769033 50.829605,43.0316737 50.2482053,43.1855306 C49.6668055,43.3393874 46.4185207,45.0419401 45.4096112,46.0508496 Z" id="path-10"></path>
        <mask id="mask-12" maskContentUnits="userSpaceOnUse" maskUnits="objectBoundingBox" x="-1" y="-1" width="82.0954466" height="85.1450306">
            <rect x="-0.868260571" y="-0.849074959" width="82.0954466" height="85.1450306" fill="white"></rect>
            <use xlink:href="#path-10" fill="black"></use>
        </mask>
        <filter x="-50%" y="-50%" width="200%" height="200%" filterUnits="objectBoundingBox" id="filter-13">
            <feOffset dx="2" dy="2" in="SourceAlpha" result="shadowOffsetOuter1"></feOffset>
            <feGaussianBlur stdDeviation="0.5" in="shadowOffsetOuter1" result="shadowBlurOuter1"></feGaussianBlur>
            <feColorMatrix values="0 0 0 0 0.290196078   0 0 0 0 0.290196078   0 0 0 0 0.290196078  0 0 0 0.15 0" type="matrix" in="shadowBlurOuter1" result="shadowMatrixOuter1"></feColorMatrix>
            <feMerge>
                <feMergeNode in="shadowMatrixOuter1"></feMergeNode>
                <feMergeNode in="SourceGraphic"></feMergeNode>
            </feMerge>
        </filter>
    </defs>
    <g id="Symbols" stroke="none" stroke-width="1" fill="none" fill-rule="evenodd">
        <g id="small-logo">
            <g id="pick-l" transform="translate(117.621778, 53.621778) rotate(-30.000000) translate(-117.621778, -53.621778) translate(47.621778, -16.378222)">
                <g id="handle" transform="translate(19.349210, 19.941655)">
                    <mask id="mask-2" fill="white">
                        <use xlink:href="#path-1"></use>
                    </mask>
                    <g id="Mask">
                        <use fill="#20948B" fill-rule="evenodd" xlink:href="#path-1"></use>
                        <use stroke="#FFFFFF" mask="url(#mask-3)" stroke-width="2" xlink:href="#path-1"></use>
                    </g>
                    <polygon id="dark" fill="#086059" mask="url(#mask-2)" points="1.61553586 3.27949871 9.25468656 10.9186494 16.4632801 3.71005588 35.5804343 26.7267423 22.9289831 19.8916616 19.7921013 23.0285433 112.464736 112.597675 116.372188 112.196109 117.795 107.373086 125.255679 119.318626 108.100768 131.444237 -12.9549795 7.00011595"></polygon>
                </g>
                <g id="pick" transform="translate(0.160912, 0.160912)">
                    <mask id="mask-5" fill="white">
                        <use xlink:href="#path-4"></use>
                    </mask>
                    <g id="Mask">
                        <use fill="#20948B" fill-rule="evenodd" xlink:href="#path-4"></use>
                        <use stroke="#FFFFFF" mask="url(#mask-6)" stroke-width="2" xlink:href="#path-4"></use>
                    </g>
                    <polygon id="dark" fill="#086059" mask="url(#mask-5)" points="0.0614534038 81.8502743 13.4512938 57.4706593 29.0213109 39.6863794 25.5592277 35.6561939 29.2652607 32.3144148 39.9074904 43.2273285 43.8708403 39.3348243 34.4176157 29.1845045 36.5663796 26.5197699 40.351947 27.5624049 61.7105937 10.9410642 85.5775799 -0.398260564 1.64746175 82.7652534"></polygon>
                </g>
            </g>
            <g id="pick-r" transform="translate(203.871778, 53.054791) rotate(30.000000) translate(-203.871778, -53.054791) translate(133.871778, -17.445209)">
                <g id="handle" transform="translate(0.000000, 20.287425)">
                    <mask id="mask-8" fill="white">
                        <use xlink:href="#path-7"></use>
                    </mask>
                    <g id="Mask">
                        <use fill="#20948B" fill-rule="evenodd" xlink:href="#path-7"></use>
                        <use stroke="#FFFFFF" mask="url(#mask-9)" stroke-width="2" xlink:href="#path-7"></use>
                    </g>
                    <polygon id="dark" fill="#086059" mask="url(#mask-8)" points="116.992334 3.18562874 109.38063 10.7973334 102.197935 3.614639 83.1494655 26.5486307 95.7554625 19.7381072 98.881074 22.8637187 6.54139439 112.111045 2.64798191 111.710922 1.23028108 106.905228 -6.20359281 118.807849 10.8896841 130.889895 131.510501 6.89287849"></polygon>
                </g>
                <g id="pick" transform="translate(59.688623, 0.000000)">
                    <mask id="mask-11" fill="white">
                        <use xlink:href="#path-10"></use>
                    </mask>
                    <g id="Mask">
                        <use fill="#20948B" fill-rule="evenodd" xlink:href="#path-10"></use>
                        <use stroke="#FFFFFF" mask="url(#mask-12)" stroke-width="2" xlink:href="#path-10"></use>
                    </g>
                    <polygon id="dark" fill="#086059" mask="url(#mask-11)" points="13.3490633 4.65342083 33.4673258 19.7752016 39.3324128 30.0612347 34.8120164 36.0512764 35.9647823 37.6679746 46.9044789 29.1075992 49.8364369 32.329613 39.3324128 40.866046 44.3571687 47.5655897 51.3192933 45.0465393 82.1719696 72.1339849 60.4739103 21.3051369"></polygon>
                </g>
            </g>
            <g id="stars" filter="url(#filter-13)" transform="translate(103.000000, 17.000000)" stroke="#FFFFFF" fill="#20948B">
                <polygon id="1" points="5.71749687 9.01759797 2.18388948 10.8753253 2.85874844 6.94059565 0 4.15400463 3.95069317 3.57993531 5.71749687 0 7.48430057 3.57993531 11.4349937 4.15400463 8.57624531 6.94059565 9.25110427 10.8753253"></polygon>
                <polygon id="2" points="31.7174969 9.01759797 28.1838895 10.8753253 28.8587484 6.94059565 26 4.15400463 29.9506932 3.57993531 31.7174969 0 33.4843006 3.57993531 37.4349937 4.15400463 34.5762453 6.94059565 35.2511043 10.8753253"></polygon>
                <polygon id="3" points="57.7174969 9.01759797 54.1838895 10.8753253 54.8587484 6.94059565 52 4.15400463 55.9506932 3.57993531 57.7174969 0 59.4843006 3.57993531 63.4349937 4.15400463 60.5762453 6.94059565 61.2511043 10.8753253"></polygon>
                <polygon id="4" points="82.7174969 9.01759797 79.1838895 10.8753253 79.8587484 6.94059565 77 4.15400463 80.9506932 3.57993531 82.7174969 0 84.4843006 3.57993531 88.4349937 4.15400463 85.5762453 6.94059565 86.2511043 10.8753253"></polygon>
                <polygon id="5" points="108.717497 9.01759797 105.183889 10.8753253 105.858748 6.94059565 103 4.15400463 106.950693 3.57993531 108.717497 0 110.484301 3.57993531 114.434994 4.15400463 111.576245 6.94059565 112.251104 10.8753253"></polygon>
            </g>
        </g>
    </g>
</svg>
